<svg xmlns="http://www.w3.org/2000/svg" id="canvas" viewBox="271.181 385.250 1150.452 213.444"><path d="M 321.14,443.14 C 321.19 444.67, 321.60 446.90, 322.19 450.67 C 322.77 454.43, 323.24 456.82, 324.06 461.95 C 324.87 467.08, 325.42 470.56, 326.29 476.32 C 327.15 482.08, 327.65 485.13, 328.37 490.77 C 329.10 496.40, 329.39 499.25, 329.92 504.48 C 330.44 509.72, 330.66 512.31, 330.99 516.94 C 331.33 521.58, 331.44 523.79, 331.60 527.66 C 331.75 531.53, 331.64 533.48, 331.77 536.31 C 331.90 539.14, 332.05 540.14, 332.26 541.81 C 332.46 543.48, 332.59 544.09, 332.79 544.65 C 332.99 545.21, 333.14 545.19, 333.25 544.61 C 333.37 544.03, 333.35 543.43, 333.38 541.75 C 333.40 540.08, 333.49 539.07, 333.38 536.24 C 333.28 533.41, 333.13 531.47, 332.86 527.59 C 332.60 523.71, 332.46 521.50, 332.07 516.86 C 331.67 512.22, 331.44 509.63, 330.89 504.38 C 330.35 499.14, 330.05 496.29, 329.34 490.64 C 328.62 485.00, 328.15 481.94, 327.32 476.17 C 326.50 470.39, 325.98 466.91, 325.21 461.77 C 324.43 456.63, 324.09 454.21, 323.43 450.46 C 322.78 446.71, 322.38 444.47, 321.92 443.00 C 321.46 441.54, 321.08 441.61, 321.14 443.14" style="stroke: black; fill: black;"/><path d="M 274.73,492.45 C 275.43 492.62, 275.85 492.62, 278.22 492.66 C 280.59 492.70, 282.10 492.64, 286.59 492.66 C 291.07 492.67, 294.19 492.70, 300.64 492.75 C 307.09 492.80, 311.20 492.92, 318.84 492.91 C 326.49 492.90, 330.94 492.81, 338.86 492.72 C 346.79 492.64, 351.00 492.59, 358.47 492.50 C 365.93 492.41, 369.66 492.33, 376.20 492.28 C 382.74 492.23, 385.86 492.27, 391.18 492.25 C 396.50 492.23, 398.99 492.18, 402.80 492.18 C 406.60 492.19, 407.92 492.31, 410.21 492.29 C 412.50 492.27, 413.42 492.21, 414.23 492.07 C 415.04 491.93, 415.04 491.77, 414.24 491.59 C 413.44 491.41, 412.52 491.28, 410.23 491.17 C 407.94 491.06, 406.60 490.98, 402.79 491.02 C 398.98 491.05, 396.49 491.24, 391.17 491.34 C 385.85 491.44, 382.74 491.41, 376.19 491.50 C 369.65 491.59, 365.92 491.68, 358.46 491.78 C 350.99 491.88, 346.78 491.93, 338.86 492.00 C 330.94 492.06, 326.49 492.15, 318.85 492.10 C 311.21 492.05, 307.10 491.90, 300.66 491.74 C 294.21 491.58, 291.10 491.41, 286.61 491.29 C 282.11 491.18, 280.58 491.06, 278.20 491.16 C 275.82 491.27, 275.38 491.56, 274.69 491.82 C 273.99 492.07, 274.02 492.28, 274.73 492.45" style="stroke: black; fill: black;"/><path d="M 548.28,486.65 C 548.95 486.19, 549.59 485.65, 551.09 483.88 C 552.60 482.11, 553.47 480.89, 555.80 477.80 C 558.12 474.71, 559.62 472.67, 562.73 468.44 C 565.84 464.21, 567.79 461.78, 571.34 456.64 C 574.89 451.49, 576.90 448.49, 580.49 442.71 C 584.07 436.93, 586.02 433.61, 589.27 427.72 C 592.52 421.83, 594.13 418.65, 596.72 413.26 C 599.32 407.88, 600.49 405.15, 602.23 400.81 C 603.97 396.48, 604.66 394.04, 605.44 391.60 C 606.22 389.16, 605.97 388.16, 606.13 388.60 C 606.29 389.05, 606.01 390.18, 606.23 393.83 C 606.45 397.49, 606.68 400.49, 607.23 406.86 C 607.79 413.24, 608.16 417.78, 609.02 425.71 C 609.87 433.64, 610.38 438.45, 611.51 446.52 C 612.65 454.60, 613.33 458.81, 614.69 466.07 C 616.06 473.33, 616.86 476.81, 618.35 482.82 C 619.83 488.82, 620.64 491.53, 622.12 496.11 C 623.60 500.69, 624.39 502.71, 625.75 505.73 C 627.11 508.74, 627.84 509.66, 628.92 511.19 C 629.99 512.71, 630.61 512.98, 631.12 513.36 C 631.62 513.74, 631.71 513.63, 631.45 513.09 C 631.18 512.54, 630.69 512.21, 629.78 510.63 C 628.88 509.06, 628.27 508.16, 626.92 505.19 C 625.58 502.23, 624.60 500.32, 623.03 495.80 C 621.47 491.29, 620.64 488.60, 619.12 482.62 C 617.59 476.65, 616.78 473.18, 615.40 465.94 C 614.02 458.70, 613.34 454.49, 612.23 446.42 C 611.12 438.36, 610.64 433.55, 609.85 425.62 C 609.06 417.69, 608.75 413.16, 608.29 406.78 C 607.82 400.40, 607.90 397.40, 607.52 393.73 C 607.14 390.05, 607.03 388.91, 606.38 388.39 C 605.73 387.88, 605.30 388.76, 604.27 391.17 C 603.24 393.57, 602.89 396.07, 601.22 400.42 C 599.56 404.76, 598.46 407.50, 595.93 412.88 C 593.39 418.26, 591.77 421.45, 588.54 427.32 C 585.31 433.20, 583.36 436.51, 579.76 442.26 C 576.17 448.02, 574.15 451.00, 570.56 456.09 C 566.96 461.18, 564.97 463.57, 561.77 467.72 C 558.57 471.88, 556.95 473.82, 554.56 476.85 C 552.18 479.89, 551.21 481.03, 549.85 482.90 C 548.48 484.77, 548.05 485.46, 547.73 486.21 C 547.42 486.96, 547.61 487.12, 548.28 486.65" style="stroke: black; fill: black;"/><path d="M 700.28,421.16 C 699.72 420.56, 698.85 419.54, 697.09 418.88 C 695.34 418.21, 694.13 417.53, 691.50 417.84 C 688.87 418.15, 687.04 418.33, 683.94 420.40 C 680.85 422.48, 679.04 424.27, 676.02 428.24 C 673.01 432.21, 671.20 435.00, 668.87 440.26 C 666.54 445.51, 665.24 448.78, 664.35 454.52 C 663.47 460.26, 663.32 463.54, 664.45 468.95 C 665.58 474.36, 666.83 477.18, 670.00 481.58 C 673.17 485.98, 675.49 487.94, 680.31 490.97 C 685.12 493.99, 688.24 495.13, 694.08 496.72 C 699.91 498.30, 703.36 498.72, 709.48 498.89 C 715.60 499.07, 718.94 498.73, 724.67 497.59 C 730.41 496.44, 733.39 495.53, 738.17 493.15 C 742.95 490.77, 745.15 489.21, 748.58 485.69 C 752.01 482.16, 753.45 479.94, 755.32 475.51 C 757.19 471.07, 757.81 468.45, 757.93 463.51 C 758.04 458.57, 757.53 455.68, 755.91 450.81 C 754.28 445.93, 752.91 443.35, 749.82 439.15 C 746.72 434.95, 744.61 432.96, 740.44 429.81 C 736.28 426.67, 733.56 425.36, 729.00 423.42 C 724.43 421.49, 721.74 420.80, 717.64 420.13 C 713.54 419.45, 710.33 419.90, 708.50 420.04 C 706.67 420.17, 706.69 420.55, 708.48 420.78 C 710.27 421.02, 713.43 420.49, 717.45 421.22 C 721.47 421.95, 724.10 422.54, 728.57 424.42 C 733.05 426.31, 735.74 427.56, 739.82 430.63 C 743.91 433.70, 745.98 435.65, 749.00 439.75 C 752.02 443.85, 753.35 446.39, 754.92 451.13 C 756.50 455.88, 756.99 458.69, 756.88 463.49 C 756.78 468.28, 756.18 470.81, 754.38 475.11 C 752.58 479.41, 751.20 481.56, 747.87 485.00 C 744.55 488.44, 742.43 489.97, 737.75 492.31 C 733.08 494.65, 730.15 495.56, 724.50 496.70 C 718.85 497.84, 715.54 498.18, 709.50 498.01 C 703.47 497.84, 700.06 497.42, 694.31 495.85 C 688.57 494.29, 685.50 493.16, 680.79 490.20 C 676.07 487.24, 673.83 485.33, 670.74 481.04 C 667.65 476.76, 666.44 474.04, 665.35 468.76 C 664.27 463.49, 664.41 460.28, 665.30 454.67 C 666.20 449.05, 667.50 445.83, 669.84 440.69 C 672.17 435.56, 674.01 432.79, 677.00 429.00 C 679.99 425.20, 681.86 423.58, 684.80 421.72 C 687.74 419.86, 689.35 419.95, 691.71 419.69 C 694.07 419.43, 694.96 419.99, 696.59 420.42 C 698.22 420.86, 699.13 421.72, 699.87 421.87 C 700.61 422.02, 700.83 421.76, 700.28 421.16" style="stroke: black; fill: black;"/><path d="M 925.57,441.84 C 925.48 442.83, 925.15 443.88, 925.80 446.68 C 926.45 449.48, 927.14 451.62, 928.82 455.85 C 930.50 460.08, 931.58 463.09, 934.19 467.83 C 936.80 472.56, 938.50 475.36, 941.86 479.53 C 945.22 483.70, 947.23 485.72, 950.97 488.67 C 954.71 491.63, 956.78 492.72, 960.58 494.29 C 964.38 495.85, 966.34 496.27, 969.96 496.51 C 973.59 496.74, 975.45 496.56, 978.70 495.45 C 981.95 494.35, 983.54 493.41, 986.21 490.98 C 988.88 488.55, 990.06 486.86, 992.05 483.30 C 994.03 479.75, 994.81 477.38, 996.14 473.21 C 997.46 469.03, 997.92 466.42, 998.66 462.43 C 999.41 458.44, 999.73 456.20, 999.85 453.26 C 999.97 450.33, 999.56 448.88, 999.26 447.74 C 998.95 446.60, 998.41 446.46, 998.33 447.58 C 998.26 448.70, 998.17 449.96, 998.88 453.34 C 999.59 456.72, 1000.28 459.16, 1001.87 464.48 C 1003.47 469.81, 1004.64 473.28, 1006.87 479.95 C 1009.10 486.63, 1010.53 490.54, 1013.04 497.88 C 1015.54 505.21, 1017.04 509.23, 1019.40 516.62 C 1021.76 524.01, 1023.05 527.85, 1024.83 534.83 C 1026.61 541.81, 1027.48 545.30, 1028.30 551.52 C 1029.13 557.74, 1029.33 560.70, 1028.94 565.94 C 1028.55 571.18, 1028.08 573.62, 1026.35 577.73 C 1024.61 581.83, 1023.40 583.59, 1020.26 586.46 C 1017.12 589.33, 1015.09 590.46, 1010.64 592.08 C 1006.20 593.71, 1003.48 594.24, 998.03 594.57 C 992.59 594.90, 989.33 594.70, 983.44 593.72 C 977.54 592.74, 974.18 591.87, 968.54 589.67 C 962.90 587.46, 959.89 585.96, 955.24 582.69 C 950.60 579.42, 948.36 577.44, 945.30 573.31 C 942.24 569.18, 941.02 566.84, 939.95 562.02 C 938.88 557.20, 938.83 554.54, 939.95 549.21 C 941.06 543.88, 942.25 540.98, 945.53 535.37 C 948.81 529.75, 951.15 526.72, 956.35 521.15 C 961.55 515.58, 964.84 512.74, 971.52 507.53 C 978.20 502.33, 982.17 499.80, 989.76 495.12 C 997.35 490.45, 1001.65 488.25, 1009.47 484.15 C 1017.28 480.05, 1021.41 478.15, 1028.83 474.64 C 1036.25 471.12, 1040.06 469.58, 1046.57 466.56 C 1053.07 463.53, 1056.24 462.23, 1061.36 459.51 C 1066.48 456.79, 1068.71 455.43, 1072.16 452.96 C 1075.61 450.49, 1077.01 449.40, 1078.61 447.15 C 1080.21 444.89, 1080.41 443.65, 1080.17 441.66 C 1079.93 439.67, 1079.27 438.54, 1077.41 437.19 C 1075.55 435.84, 1073.99 435.22, 1070.87 434.91 C 1067.74 434.60, 1065.59 434.74, 1061.79 435.64 C 1057.98 436.53, 1055.60 437.32, 1051.85 439.39 C 1048.10 441.47, 1045.90 443.00, 1043.02 446.03 C 1040.14 449.05, 1038.67 451.03, 1037.46 454.53 C 1036.25 458.04, 1036.04 460.14, 1036.97 463.55 C 1037.90 466.95, 1038.98 468.75, 1042.11 471.54 C 1045.24 474.34, 1047.54 475.60, 1052.61 477.51 C 1057.68 479.41, 1061.07 480.14, 1067.46 481.08 C 1073.85 482.03, 1077.54 482.21, 1084.57 482.22 C 1091.61 482.23, 1095.54 481.94, 1102.62 481.12 C 1109.71 480.31, 1113.45 479.67, 1120.01 478.15 C 1126.57 476.63, 1129.74 475.62, 1135.43 473.53 C 1141.12 471.44, 1143.87 470.22, 1148.46 467.70 C 1153.05 465.17, 1155.01 463.71, 1158.38 460.91 C 1161.76 458.12, 1163.22 456.59, 1165.33 453.72 C 1167.43 450.85, 1168.21 449.32, 1168.89 446.58 C 1169.58 443.85, 1169.51 442.32, 1168.75 440.04 C 1167.99 437.76, 1167.22 436.62, 1165.10 435.18 C 1162.98 433.74, 1161.39 433.12, 1158.16 432.84 C 1154.92 432.57, 1152.83 432.69, 1148.95 433.81 C 1145.06 434.92, 1142.68 435.97, 1138.75 438.40 C 1134.82 440.82, 1132.50 442.58, 1129.28 445.93 C 1126.06 449.28, 1124.45 451.42, 1122.65 455.15 C 1120.84 458.88, 1120.26 461.07, 1120.27 464.58 C 1120.27 468.08, 1120.86 469.94, 1122.67 472.68 C 1124.48 475.42, 1126.13 476.63, 1129.32 478.26 C 1132.50 479.90, 1134.67 480.40, 1138.59 480.85 C 1142.50 481.31, 1144.84 481.26, 1148.90 480.56 C 1152.96 479.86, 1155.18 479.13, 1158.88 477.35 C 1162.59 475.58, 1164.45 474.36, 1167.41 471.70 C 1170.38 469.05, 1171.73 467.29, 1173.72 464.09 C 1175.71 460.89, 1176.41 458.46, 1177.36 455.70 C 1178.31 452.95, 1178.12 451.34, 1178.47 450.31 C 1178.81 449.27, 1178.49 449.43, 1179.09 450.54 C 1179.68 451.66, 1179.98 453.23, 1181.45 455.88 C 1182.92 458.53, 1184.03 460.71, 1186.45 463.79 C 1188.87 466.87, 1190.43 468.73, 1193.56 471.28 C 1196.69 473.82, 1198.67 474.91, 1202.10 476.51 C 1205.53 478.11, 1207.40 478.61, 1210.71 479.27 C 1214.02 479.94, 1215.74 480.07, 1218.66 479.85 C 1221.58 479.63, 1223.03 479.27, 1225.31 478.17 C 1227.59 477.07, 1228.55 476.22, 1230.04 474.35 C 1231.54 472.47, 1232.03 471.21, 1232.78 468.81 C 1233.52 466.40, 1233.60 464.95, 1233.77 462.32 C 1233.93 459.70, 1233.76 457.89, 1233.61 455.67 C 1233.46 453.45, 1233.07 452.27, 1233.02 451.22 C 1232.98 450.17, 1232.87 450.02, 1233.40 450.44 C 1233.93 450.85, 1234.31 451.61, 1235.67 453.29 C 1237.02 454.96, 1238.11 456.43, 1240.19 458.83 C 1242.27 461.22, 1243.74 462.79, 1246.07 465.26 C 1248.41 467.73, 1249.67 469.16, 1251.86 471.20 C 1254.05 473.23, 1255.21 474.26, 1257.01 475.45 C 1258.81 476.64, 1259.65 477.02, 1260.88 477.15 C 1262.11 477.27, 1262.54 477.03, 1263.14 476.08 C 1263.74 475.13, 1263.80 474.37, 1263.88 472.40 C 1263.96 470.43, 1263.76 469.01, 1263.55 466.24 C 1263.33 463.47, 1262.92 461.67, 1262.81 458.55 C 1262.70 455.42, 1262.60 453.60, 1262.99 450.62 C 1263.38 447.64, 1263.59 446.06, 1264.75 443.63 C 1265.91 441.20, 1266.62 440.19, 1268.79 438.48 C 1270.96 436.77, 1272.40 436.13, 1275.62 435.07 C 1278.83 434.01, 1280.78 433.63, 1284.86 433.16 C 1288.95 432.70, 1291.39 432.69, 1296.05 432.75 C 1300.71 432.82, 1303.41 433.03, 1308.16 433.49 C 1312.92 433.94, 1315.35 434.29, 1319.81 435.03 C 1324.27 435.77, 1326.68 436.21, 1330.46 437.18 C 1334.24 438.14, 1335.87 438.74, 1338.72 439.86 C 1341.57 440.98, 1342.68 441.57, 1344.71 442.79 C 1346.73 444.00, 1347.51 444.64, 1348.85 445.93 C 1350.20 447.22, 1350.40 447.95, 1351.43 449.25 C 1352.47 450.56, 1353.38 451.90, 1354.03 452.44 C 1354.69 452.99, 1354.99 452.79, 1354.72 451.97 C 1354.45 451.16, 1353.63 449.78, 1352.66 448.35 C 1351.70 446.93, 1351.34 446.21, 1349.91 444.83 C 1348.48 443.45, 1347.63 442.73, 1345.50 441.45 C 1343.37 440.18, 1342.20 439.57, 1339.26 438.47 C 1336.31 437.36, 1334.62 436.85, 1330.77 435.93 C 1326.92 435.00, 1324.50 434.58, 1320.00 433.86 C 1315.50 433.14, 1313.06 432.79, 1308.28 432.32 C 1303.49 431.86, 1300.78 431.62, 1296.07 431.52 C 1291.36 431.42, 1288.90 431.39, 1284.72 431.81 C 1280.54 432.24, 1278.54 432.56, 1275.15 433.64 C 1271.77 434.71, 1270.18 435.35, 1267.79 437.20 C 1265.40 439.05, 1264.53 440.25, 1263.22 442.88 C 1261.91 445.52, 1261.70 447.23, 1261.22 450.37 C 1260.75 453.51, 1260.84 455.37, 1260.83 458.58 C 1260.83 461.79, 1260.96 463.65, 1261.19 466.43 C 1261.41 469.21, 1261.75 470.62, 1261.97 472.46 C 1262.18 474.31, 1262.43 474.94, 1262.25 475.67 C 1262.08 476.41, 1261.94 476.46, 1261.09 476.15 C 1260.24 475.83, 1259.57 475.37, 1257.98 474.11 C 1256.39 472.85, 1255.26 471.86, 1253.15 469.83 C 1251.05 467.81, 1249.71 466.47, 1247.46 463.98 C 1245.20 461.49, 1243.93 459.79, 1241.86 457.38 C 1239.79 454.98, 1238.75 453.48, 1237.11 451.94 C 1235.48 450.40, 1234.74 449.85, 1233.69 449.67 C 1232.64 449.48, 1232.31 449.81, 1231.88 451.02 C 1231.44 452.23, 1231.56 453.49, 1231.53 455.73 C 1231.49 457.96, 1231.81 459.70, 1231.71 462.22 C 1231.61 464.74, 1231.64 466.08, 1231.05 468.31 C 1230.46 470.53, 1230.05 471.66, 1228.76 473.34 C 1227.48 475.03, 1226.67 475.76, 1224.62 476.72 C 1222.57 477.69, 1221.25 477.96, 1218.53 478.17 C 1215.81 478.39, 1214.17 478.38, 1211.00 477.79 C 1207.83 477.20, 1205.99 476.75, 1202.70 475.22 C 1199.40 473.69, 1197.47 472.64, 1194.51 470.14 C 1191.54 467.63, 1190.13 465.76, 1187.87 462.70 C 1185.60 459.65, 1184.79 457.41, 1183.19 454.85 C 1181.59 452.30, 1180.97 450.91, 1179.88 449.91 C 1178.78 448.91, 1178.55 448.83, 1177.71 449.87 C 1176.86 450.90, 1176.69 452.38, 1175.64 455.08 C 1174.60 457.77, 1174.29 460.21, 1172.47 463.34 C 1170.64 466.47, 1169.36 468.15, 1166.53 470.72 C 1163.70 473.29, 1161.89 474.47, 1158.32 476.17 C 1154.75 477.87, 1152.58 478.57, 1148.67 479.23 C 1144.76 479.88, 1142.49 479.90, 1138.75 479.46 C 1135.01 479.01, 1132.95 478.50, 1129.97 476.99 C 1126.99 475.47, 1125.51 474.38, 1123.84 471.90 C 1122.16 469.42, 1121.61 467.81, 1121.60 464.57 C 1121.59 461.33, 1122.07 459.26, 1123.78 455.70 C 1125.50 452.14, 1127.05 450.03, 1130.18 446.79 C 1133.30 443.55, 1135.60 441.82, 1139.43 439.51 C 1143.26 437.19, 1145.62 436.21, 1149.34 435.22 C 1153.05 434.22, 1155.03 434.27, 1158.01 434.52 C 1160.99 434.77, 1162.36 435.30, 1164.23 436.49 C 1166.11 437.68, 1166.76 438.54, 1167.39 440.49 C 1168.03 442.43, 1168.04 443.72, 1167.42 446.21 C 1166.79 448.71, 1166.21 450.19, 1164.27 452.96 C 1162.32 455.73, 1160.94 457.30, 1157.68 460.08 C 1154.43 462.87, 1152.51 464.35, 1148.00 466.88 C 1143.50 469.41, 1140.78 470.64, 1135.14 472.75 C 1129.51 474.85, 1126.35 475.87, 1119.83 477.39 C 1113.31 478.91, 1109.59 479.55, 1102.54 480.35 C 1095.48 481.16, 1091.56 481.44, 1084.58 481.40 C 1077.59 481.37, 1073.91 481.16, 1067.60 480.18 C 1061.28 479.21, 1057.93 478.43, 1052.99 476.52 C 1048.05 474.62, 1045.86 473.32, 1042.90 470.66 C 1039.95 468.00, 1039.05 466.35, 1038.21 463.21 C 1037.37 460.07, 1037.56 458.22, 1038.71 454.97 C 1039.87 451.72, 1041.23 449.82, 1043.99 446.95 C 1046.75 444.08, 1048.89 442.58, 1052.52 440.62 C 1056.15 438.66, 1058.50 437.95, 1062.13 437.17 C 1065.77 436.39, 1067.81 436.47, 1070.70 436.72 C 1073.60 436.97, 1074.93 437.39, 1076.60 438.40 C 1078.27 439.42, 1078.87 440.20, 1079.06 441.80 C 1079.25 443.39, 1079.05 444.32, 1077.55 446.38 C 1076.05 448.45, 1074.86 449.64, 1071.54 452.11 C 1068.22 454.59, 1066.02 456.02, 1060.97 458.78 C 1055.91 461.54, 1052.75 462.86, 1046.27 465.92 C 1039.79 468.98, 1035.98 470.52, 1028.56 474.06 C 1021.14 477.60, 1017.01 479.50, 1009.18 483.61 C 1001.36 487.71, 997.05 489.91, 989.44 494.59 C 981.82 499.28, 977.84 501.80, 971.12 507.01 C 964.39 512.22, 961.08 515.06, 955.82 520.65 C 950.56 526.23, 948.17 529.27, 944.82 534.95 C 941.47 540.63, 940.23 543.57, 939.07 549.03 C 937.92 554.48, 937.95 557.26, 939.04 562.22 C 940.14 567.19, 941.42 569.62, 944.55 573.86 C 947.69 578.10, 949.99 580.10, 954.72 583.43 C 959.46 586.75, 962.50 588.26, 968.21 590.51 C 973.93 592.75, 977.31 593.63, 983.28 594.64 C 989.26 595.65, 992.55 595.88, 998.09 595.56 C 1003.64 595.25, 1006.42 594.73, 1011.00 593.07 C 1015.57 591.40, 1017.72 590.23, 1020.97 587.23 C 1024.22 584.24, 1025.49 582.35, 1027.26 578.11 C 1029.03 573.86, 1029.45 571.34, 1029.82 566.00 C 1030.18 560.66, 1029.94 557.68, 1029.08 551.41 C 1028.23 545.14, 1027.34 541.65, 1025.54 534.65 C 1023.73 527.64, 1022.43 523.80, 1020.08 516.40 C 1017.72 509.00, 1016.23 504.98, 1013.76 497.63 C 1011.29 490.29, 1009.87 486.37, 1007.73 479.67 C 1005.59 472.98, 1004.51 469.48, 1003.06 464.15 C 1001.62 458.81, 1001.29 456.32, 1000.50 452.98 C 999.71 449.64, 999.53 448.49, 999.11 447.45 C 998.70 446.41, 998.63 446.64, 998.42 447.78 C 998.21 448.92, 998.30 450.28, 998.07 453.16 C 997.84 456.04, 997.91 458.25, 997.26 462.18 C 996.62 466.11, 996.14 468.72, 994.86 472.81 C 993.58 476.90, 992.79 479.22, 990.87 482.64 C 988.95 486.07, 987.80 487.65, 985.27 489.95 C 982.75 492.25, 981.30 493.09, 978.25 494.14 C 975.21 495.19, 973.49 495.40, 970.04 495.21 C 966.59 495.03, 964.70 494.68, 961.02 493.20 C 957.34 491.72, 955.30 490.69, 951.64 487.82 C 947.98 484.95, 945.98 482.97, 942.70 478.85 C 939.42 474.74, 937.76 471.95, 935.25 467.25 C 932.74 462.55, 931.71 459.54, 930.14 455.34 C 928.56 451.14, 928.15 448.99, 927.37 446.27 C 926.60 443.55, 926.62 442.63, 926.26 441.74 C 925.90 440.85, 925.66 440.85, 925.57 441.84" style="stroke: black; fill: black;"/><path d="M 1405.78,444.83 C 1405.09 444.27, 1404.19 443.50, 1402.06 442.73 C 1399.93 441.96, 1398.46 441.46, 1395.14 440.98 C 1391.82 440.50, 1389.54 440.29, 1385.46 440.34 C 1381.38 440.38, 1378.86 440.63, 1374.75 441.22 C 1370.63 441.82, 1368.26 442.27, 1364.89 443.31 C 1361.52 444.35, 1359.72 444.93, 1357.89 446.42 C 1356.05 447.92, 1355.45 448.95, 1355.71 450.78 C 1355.97 452.61, 1356.72 453.75, 1359.18 455.57 C 1361.63 457.40, 1363.76 458.19, 1367.98 459.89 C 1372.20 461.59, 1375.10 462.40, 1380.30 464.08 C 1385.50 465.75, 1388.76 466.61, 1393.98 468.25 C 1399.19 469.89, 1402.22 470.76, 1406.37 472.29 C 1410.52 473.81, 1412.43 474.62, 1414.73 475.88 C 1417.03 477.15, 1417.75 477.61, 1417.87 478.63 C 1417.99 479.65, 1417.42 479.98, 1415.32 480.98 C 1413.22 481.98, 1411.44 482.54, 1407.38 483.65 C 1403.32 484.76, 1400.54 485.47, 1395.02 486.54 C 1389.50 487.61, 1386.03 488.09, 1379.78 489.01 C 1373.54 489.93, 1369.94 490.41, 1363.78 491.16 C 1357.63 491.90, 1354.32 492.22, 1349.00 492.72 C 1343.68 493.23, 1341.12 493.41, 1337.17 493.68 C 1333.22 493.94, 1331.65 493.88, 1329.25 494.05 C 1326.84 494.22, 1326.26 494.33, 1325.17 494.53 C 1324.07 494.73, 1324.00 494.83, 1323.77 495.04 C 1323.53 495.26, 1323.91 495.51, 1323.99 495.60 C 1324.06 495.69, 1324.17 495.54, 1324.15 495.49 C 1324.14 495.44, 1323.69 495.34, 1323.91 495.35 C 1324.13 495.35, 1324.16 495.50, 1325.25 495.52 C 1326.33 495.53, 1326.93 495.57, 1329.33 495.44 C 1331.74 495.31, 1333.31 495.21, 1337.26 494.86 C 1341.22 494.51, 1343.77 494.26, 1349.10 493.70 C 1354.42 493.14, 1357.73 492.81, 1363.89 492.06 C 1370.06 491.32, 1373.65 490.84, 1379.92 489.96 C 1386.19 489.08, 1389.66 488.65, 1395.23 487.67 C 1400.79 486.68, 1403.60 486.12, 1407.75 485.04 C 1411.91 483.95, 1413.83 483.54, 1416.00 482.25 C 1418.17 480.95, 1418.73 480.07, 1418.62 478.56 C 1418.51 477.05, 1417.81 476.16, 1415.44 474.68 C 1413.07 473.20, 1411.00 472.65, 1406.78 471.16 C 1402.55 469.66, 1399.53 468.84, 1394.31 467.20 C 1389.08 465.56, 1385.82 464.68, 1380.66 462.96 C 1375.50 461.24, 1372.62 460.34, 1368.51 458.60 C 1364.41 456.85, 1362.48 455.84, 1360.12 454.24 C 1357.76 452.64, 1357.00 451.95, 1356.71 450.61 C 1356.43 449.27, 1356.98 448.69, 1358.71 447.52 C 1360.43 446.36, 1362.09 445.76, 1365.34 444.79 C 1368.59 443.82, 1370.93 443.24, 1374.96 442.67 C 1378.98 442.09, 1381.48 441.88, 1385.47 441.91 C 1389.45 441.93, 1391.66 442.31, 1394.88 442.79 C 1398.10 443.27, 1399.45 443.77, 1401.57 444.31 C 1403.69 444.86, 1404.63 445.42, 1405.47 445.52 C 1406.32 445.63, 1406.46 445.39, 1405.78 444.83" style="stroke: black; fill: black;"/></svg>