<svg xmlns="http://www.w3.org/2000/svg" id="canvas" viewBox="285.776 198.767 1526.895 258.758"><path d="M 356.10,206.11 C 355.13 205.32, 353.75 204.19, 350.89 203.96 C 348.03 203.72, 345.99 203.64, 341.79 204.94 C 337.58 206.24, 334.86 207.10, 329.86 210.46 C 324.87 213.82, 321.91 216.13, 316.83 221.73 C 311.75 227.33, 308.89 231.07, 304.46 238.45 C 300.03 245.83, 297.71 250.44, 294.67 258.64 C 291.62 266.83, 290.05 271.42, 289.24 279.42 C 288.42 287.42, 288.58 291.66, 290.59 298.63 C 292.60 305.60, 294.46 308.90, 299.27 314.27 C 304.08 319.64, 307.54 321.78, 314.63 325.47 C 321.73 329.17, 326.45 330.54, 334.74 332.75 C 343.02 334.96, 347.68 335.58, 356.06 336.54 C 364.44 337.49, 368.81 337.43, 376.65 337.53 C 384.49 337.63, 388.46 337.41, 395.25 337.04 C 402.04 336.67, 405.18 336.25, 410.60 335.68 C 416.01 335.11, 418.45 334.73, 422.32 334.19 C 426.19 333.64, 427.54 333.57, 429.94 332.96 C 432.34 332.35, 433.04 331.97, 434.33 331.13 C 435.62 330.30, 435.76 329.77, 436.38 328.77 C 436.99 327.76, 437.25 327.38, 437.41 326.12 C 437.57 324.86, 437.52 324.13, 437.16 322.46 C 436.80 320.79, 436.50 319.87, 435.61 317.77 C 434.73 315.67, 434.25 314.45, 432.74 311.95 C 431.24 309.46, 430.24 307.95, 428.08 305.28 C 425.92 302.61, 424.81 301.06, 421.93 298.62 C 419.04 296.18, 417.35 295.05, 413.66 293.08 C 409.97 291.11, 407.64 290.17, 403.48 288.77 C 399.32 287.38, 396.82 286.80, 392.87 286.09 C 388.92 285.38, 386.76 285.23, 383.73 285.22 C 380.70 285.20, 379.41 285.57, 377.73 286.03 C 376.05 286.49, 375.86 286.86, 375.32 287.50 C 374.78 288.14, 374.86 288.66, 375.02 289.22 C 375.18 289.79, 375.70 290.44, 376.14 290.31 C 376.58 290.19, 377.20 289.00, 377.20 288.60 C 377.20 288.21, 376.38 288.29, 376.15 288.34 C 375.91 288.39, 375.62 288.70, 376.01 288.86 C 376.40 289.03, 376.57 289.09, 378.10 289.16 C 379.64 289.24, 380.84 289.18, 383.68 289.23 C 386.53 289.28, 388.58 288.92, 392.34 289.43 C 396.10 289.94, 398.52 290.49, 402.47 291.79 C 406.43 293.09, 408.69 294.03, 412.11 295.93 C 415.52 297.84, 417.02 298.93, 419.55 301.30 C 422.07 303.67, 422.97 305.14, 424.73 307.77 C 426.49 310.39, 427.09 312.02, 428.35 314.43 C 429.60 316.83, 430.13 317.90, 431.01 319.79 C 431.88 321.69, 432.10 322.59, 432.72 323.91 C 433.33 325.22, 433.79 325.63, 434.09 326.37 C 434.40 327.11, 434.46 327.11, 434.26 327.61 C 434.05 328.11, 434.08 328.43, 433.07 328.88 C 432.05 329.33, 431.42 329.34, 429.18 329.87 C 426.94 330.41, 425.64 330.80, 421.87 331.54 C 418.10 332.29, 415.69 332.85, 410.34 333.60 C 405.00 334.35, 401.88 334.82, 395.14 335.29 C 388.41 335.76, 384.45 335.99, 376.66 335.94 C 368.88 335.88, 364.54 335.95, 356.24 335.01 C 347.93 334.07, 343.31 333.44, 335.14 331.25 C 326.96 329.06, 322.30 327.68, 315.36 324.07 C 308.42 320.47, 305.10 318.39, 300.45 313.22 C 295.79 308.04, 294.03 304.93, 292.09 298.20 C 290.16 291.47, 289.96 287.38, 290.76 279.58 C 291.57 271.77, 293.09 267.23, 296.11 259.18 C 299.13 251.12, 301.45 246.53, 305.87 239.30 C 310.29 232.07, 313.16 228.39, 318.22 223.02 C 323.29 217.66, 326.29 215.49, 331.17 212.48 C 336.05 209.48, 338.72 208.94, 342.63 208.00 C 346.55 207.05, 348.13 207.78, 350.74 207.76 C 353.36 207.74, 354.63 208.21, 355.70 207.88 C 356.77 207.55, 357.06 206.89, 356.10 206.11" style="stroke: black; fill: black;"/><path d="M 487.41,281.99 C 486.45 281.56, 485.06 280.74, 482.80 281.56 C 480.53 282.38, 478.86 283.39, 476.09 286.09 C 473.32 288.78, 471.37 290.82, 468.94 295.04 C 466.51 299.25, 465.41 302.07, 463.95 307.16 C 462.48 312.24, 461.75 315.42, 461.62 320.46 C 461.49 325.50, 461.76 328.12, 463.31 332.34 C 464.86 336.56, 466.40 338.65, 469.38 341.57 C 472.36 344.48, 474.41 345.59, 478.22 346.90 C 482.02 348.21, 484.36 348.55, 488.41 348.13 C 492.46 347.70, 494.81 346.87, 498.47 344.76 C 502.12 342.65, 503.90 340.73, 506.68 337.59 C 509.46 334.46, 510.64 332.14, 512.36 329.07 C 514.08 325.99, 514.60 324.10, 515.28 322.21 C 515.97 320.33, 515.52 319.75, 515.78 319.65 C 516.05 319.55, 515.79 320.27, 516.61 321.73 C 517.44 323.20, 517.95 324.84, 519.89 326.98 C 521.83 329.12, 523.44 330.39, 526.32 332.42 C 529.21 334.44, 531.14 335.49, 534.32 337.12 C 537.51 338.75, 539.15 339.38, 542.24 340.58 C 545.34 341.78, 547.14 342.52, 549.81 343.12 C 552.47 343.72, 553.68 343.91, 555.56 343.59 C 557.43 343.28, 558.05 342.85, 559.18 341.54 C 560.32 340.24, 561.01 339.48, 561.21 337.05 C 561.42 334.62, 561.02 332.63, 560.21 329.40 C 559.41 326.17, 558.30 324.17, 557.17 320.89 C 556.04 317.62, 555.50 315.85, 554.57 313.04 C 553.64 310.24, 552.97 308.82, 552.52 306.89 C 552.08 304.95, 551.59 304.32, 552.35 303.36 C 553.11 302.41, 553.86 302.58, 556.33 302.12 C 558.80 301.65, 560.61 301.21, 564.71 301.04 C 568.81 300.86, 571.63 300.94, 576.83 301.24 C 582.02 301.54, 585.20 302.08, 590.69 302.53 C 596.18 302.98, 599.16 303.20, 604.29 303.50 C 609.41 303.79, 612.16 303.92, 616.31 304.00 C 620.46 304.07, 622.35 304.38, 625.05 303.87 C 627.76 303.36, 628.87 302.77, 629.84 301.45 C 630.81 300.13, 630.78 298.88, 629.92 297.27 C 629.06 295.67, 627.88 294.55, 625.54 293.42 C 623.20 292.29, 621.29 291.88, 618.23 291.61 C 615.16 291.33, 613.22 291.32, 610.21 292.05 C 607.19 292.77, 605.39 293.42, 603.15 295.23 C 600.92 297.04, 599.86 298.40, 599.04 301.12 C 598.22 303.83, 598.01 305.65, 599.06 308.81 C 600.11 311.98, 601.33 313.92, 604.28 316.93 C 607.23 319.95, 609.29 321.47, 613.80 323.88 C 618.31 326.30, 621.10 327.45, 626.83 329.01 C 632.56 330.57, 636.19 331.25, 642.45 331.68 C 648.71 332.10, 652.27 331.93, 658.13 331.13 C 664.00 330.33, 666.88 329.70, 671.78 327.67 C 676.69 325.65, 679.11 324.30, 682.65 321.01 C 686.19 317.72, 687.62 315.44, 689.49 311.22 C 691.37 306.99, 691.66 304.54, 692.03 299.88 C 692.39 295.22, 692.04 292.71, 691.32 287.91 C 690.60 283.12, 689.74 280.50, 688.43 275.93 C 687.12 271.35, 686.22 268.94, 684.76 265.04 C 683.30 261.14, 682.65 259.19, 681.14 256.43 C 679.64 253.66, 678.56 252.25, 677.22 251.22 C 675.88 250.18, 674.99 250.22, 674.44 251.27 C 673.90 252.31, 673.50 253.55, 674.49 256.44 C 675.49 259.33, 677.02 261.24, 679.43 265.73 C 681.85 270.21, 683.47 273.20, 686.58 278.87 C 689.69 284.54, 691.51 288.03, 694.99 294.07 C 698.47 300.11, 700.51 303.44, 703.99 309.06 C 707.47 314.67, 709.50 317.61, 712.39 322.14 C 715.29 326.68, 716.46 328.91, 718.48 331.73 C 720.49 334.55, 721.34 335.37, 722.46 336.23 C 723.58 337.10, 724.25 336.85, 724.08 336.05 C 723.91 335.25, 723.70 333.98, 721.62 332.24 C 719.55 330.50, 717.38 329.44, 713.73 327.36 C 710.07 325.28, 707.33 324.08, 703.35 321.84 C 699.36 319.60, 697.07 318.28, 693.78 316.15 C 690.49 314.01, 688.82 312.74, 686.91 311.17 C 685.00 309.59, 684.33 309.41, 684.23 308.27 C 684.14 307.14, 684.80 306.87, 686.44 305.50 C 688.08 304.13, 689.42 303.30, 692.43 301.42 C 695.44 299.55, 697.49 298.36, 701.50 296.14 C 705.50 293.91, 708.02 292.68, 712.45 290.29 C 716.89 287.90, 719.44 286.75, 723.69 284.19 C 727.95 281.63, 730.18 280.33, 733.73 277.49 C 737.29 274.66, 738.95 273.16, 741.47 270.01 C 743.99 266.87, 744.99 265.09, 746.33 261.75 C 747.68 258.41, 747.93 256.55, 748.21 253.30 C 748.49 250.06, 748.38 248.38, 747.76 245.53 C 747.13 242.68, 746.49 241.14, 745.07 239.05 C 743.65 236.97, 742.38 235.89, 740.67 235.10 C 738.95 234.32, 737.82 234.27, 736.49 235.13 C 735.17 236.00, 734.24 236.94, 734.06 239.44 C 733.87 241.95, 734.43 243.63, 735.59 247.65 C 736.74 251.67, 737.81 254.42, 739.82 259.54 C 741.83 264.66, 743.15 267.83, 745.62 273.26 C 748.09 278.68, 749.54 281.73, 752.19 286.68 C 754.84 291.63, 756.26 294.15, 758.88 298.01 C 761.50 301.86, 762.78 303.63, 765.30 305.97 C 767.83 308.31, 769.08 308.99, 771.51 309.71 C 773.93 310.44, 775.17 310.15, 777.43 309.60 C 779.68 309.05, 780.79 308.16, 782.79 306.96 C 784.79 305.76, 785.71 304.70, 787.42 303.58 C 789.14 302.46, 789.65 301.64, 791.36 301.36 C 793.07 301.07, 793.72 301.36, 795.96 302.16 C 798.20 302.97, 799.63 303.81, 802.56 305.37 C 805.49 306.93, 807.18 308.08, 810.62 309.96 C 814.07 311.83, 816.09 312.97, 819.77 314.73 C 823.45 316.48, 825.63 317.41, 829.03 318.75 C 832.42 320.09, 834.10 320.76, 836.76 321.43 C 839.42 322.09, 841.12 322.23, 842.33 322.07 C 843.53 321.90, 843.67 321.39, 842.77 320.59 C 841.88 319.79, 840.36 319.10, 837.87 318.06 C 835.38 317.02, 833.66 316.69, 830.33 315.40 C 827.01 314.12, 824.83 313.37, 821.25 311.65 C 817.66 309.93, 815.74 308.78, 812.40 306.81 C 809.05 304.85, 807.54 303.57, 804.53 301.83 C 801.51 300.08, 800.06 298.95, 797.31 298.09 C 794.57 297.23, 793.24 297.22, 790.80 297.54 C 788.36 297.86, 787.22 298.56, 785.12 299.71 C 783.02 300.86, 782.05 301.95, 780.30 303.28 C 778.55 304.62, 777.95 305.66, 776.37 306.37 C 774.79 307.07, 774.18 307.34, 772.39 306.80 C 770.60 306.26, 769.69 305.72, 767.42 303.66 C 765.15 301.60, 763.64 300.13, 761.02 296.51 C 758.39 292.89, 756.91 290.40, 754.28 285.55 C 751.65 280.70, 750.21 277.66, 747.86 272.26 C 745.51 266.86, 744.26 263.67, 742.52 258.55 C 740.79 253.44, 740.10 250.54, 739.19 246.70 C 738.28 242.86, 738.24 241.35, 737.95 239.35 C 737.67 237.36, 737.59 237.04, 737.76 236.74 C 737.92 236.43, 738.05 236.91, 738.79 237.82 C 739.54 238.74, 740.50 239.58, 741.50 241.31 C 742.49 243.04, 743.17 244.12, 743.76 246.47 C 744.36 248.82, 744.57 250.24, 744.47 253.07 C 744.37 255.89, 744.31 257.55, 743.25 260.58 C 742.18 263.61, 741.39 265.24, 739.14 268.20 C 736.90 271.15, 735.38 272.62, 732.02 275.37 C 728.66 278.11, 726.50 279.42, 722.32 281.91 C 718.15 284.40, 715.62 285.54, 711.16 287.82 C 706.69 290.09, 704.15 291.23, 700.00 293.29 C 695.86 295.36, 693.66 296.21, 690.43 298.15 C 687.20 300.08, 685.59 300.92, 683.86 302.97 C 682.14 305.03, 681.68 306.26, 681.79 308.43 C 681.91 310.59, 682.41 311.69, 684.44 313.80 C 686.48 315.91, 688.52 316.78, 691.96 318.98 C 695.39 321.18, 697.69 322.41, 701.62 324.79 C 705.55 327.17, 708.09 328.63, 711.58 330.89 C 715.07 333.14, 716.68 334.84, 719.07 336.07 C 721.47 337.31, 722.56 337.28, 723.57 337.07 C 724.58 336.86, 724.63 336.45, 724.11 335.04 C 723.58 333.62, 722.90 332.83, 720.94 330.00 C 718.97 327.16, 717.34 325.28, 714.30 320.88 C 711.25 316.47, 709.21 313.55, 705.70 307.99 C 702.19 302.42, 700.17 299.10, 696.77 293.06 C 693.36 287.01, 691.59 283.51, 688.69 277.76 C 685.79 272.01, 684.36 268.90, 682.28 264.31 C 680.20 259.73, 679.60 257.47, 678.29 254.85 C 676.98 252.22, 676.35 251.63, 675.73 251.20 C 675.10 250.76, 674.76 251.28, 675.17 252.69 C 675.57 254.09, 676.39 255.51, 677.75 258.21 C 679.10 260.90, 680.33 262.48, 681.93 266.18 C 683.53 269.88, 684.41 272.29, 685.76 276.71 C 687.11 281.14, 687.95 283.73, 688.68 288.32 C 689.41 292.92, 689.71 295.31, 689.41 299.69 C 689.10 304.06, 688.83 306.28, 687.15 310.20 C 685.47 314.11, 684.25 316.17, 681.01 319.25 C 677.76 322.33, 675.55 323.65, 670.92 325.60 C 666.28 327.54, 663.50 328.20, 657.84 328.97 C 652.18 329.75, 648.68 329.92, 642.61 329.47 C 636.54 329.02, 632.97 328.32, 627.47 326.72 C 621.98 325.13, 619.29 323.89, 615.14 321.48 C 610.99 319.06, 609.19 317.44, 606.71 314.66 C 604.24 311.88, 603.60 310.07, 602.77 307.58 C 601.94 305.08, 602.01 304.00, 602.57 302.18 C 603.12 300.36, 603.83 299.55, 605.54 298.47 C 607.24 297.39, 608.65 297.07, 611.09 296.78 C 613.52 296.49, 615.16 296.77, 617.72 297.02 C 620.29 297.26, 621.88 297.61, 623.92 298.02 C 625.95 298.43, 626.98 298.65, 627.90 299.06 C 628.81 299.46, 629.15 299.78, 628.49 300.06 C 627.82 300.33, 627.01 300.23, 624.58 300.43 C 622.14 300.63, 620.33 300.96, 616.30 301.06 C 612.27 301.16, 609.49 301.15, 604.41 300.94 C 599.34 300.72, 596.38 300.50, 590.91 299.99 C 585.43 299.48, 582.29 298.86, 577.04 298.38 C 571.79 297.90, 568.98 297.63, 564.65 297.59 C 560.32 297.56, 558.31 297.37, 555.39 298.18 C 552.48 299.00, 551.39 299.86, 550.08 301.68 C 548.78 303.50, 548.81 304.79, 548.89 307.31 C 548.96 309.83, 549.63 311.30, 550.45 314.29 C 551.26 317.28, 551.98 318.98, 552.97 322.25 C 553.97 325.53, 554.61 327.66, 555.42 330.64 C 556.22 333.63, 556.63 335.31, 556.98 337.19 C 557.33 339.08, 557.47 339.41, 557.17 340.08 C 556.86 340.75, 556.72 340.76, 555.47 340.53 C 554.22 340.31, 553.29 339.70, 550.92 338.95 C 548.56 338.21, 546.60 337.87, 543.65 336.81 C 540.70 335.75, 539.08 335.24, 536.16 333.64 C 533.25 332.04, 531.55 330.90, 529.06 328.83 C 526.57 326.75, 525.70 325.19, 523.72 323.27 C 521.73 321.35, 520.78 320.28, 519.13 319.25 C 517.47 318.21, 516.82 317.83, 515.44 318.10 C 514.06 318.37, 513.51 318.77, 512.23 320.60 C 510.95 322.43, 510.65 324.27, 509.04 327.24 C 507.44 330.22, 506.62 332.51, 504.19 335.47 C 501.76 338.43, 500.11 340.15, 496.89 342.07 C 493.67 343.98, 491.62 344.66, 488.08 345.06 C 484.54 345.45, 482.53 345.15, 479.19 344.04 C 475.84 342.93, 474.02 342.04, 471.35 339.52 C 468.68 336.99, 467.25 335.20, 465.83 331.41 C 464.41 327.61, 464.09 325.23, 464.25 320.54 C 464.40 315.85, 465.11 312.72, 466.60 307.95 C 468.09 303.18, 469.23 300.50, 471.68 296.70 C 474.12 292.90, 476.28 291.31, 478.82 288.95 C 481.35 286.60, 482.61 285.98, 484.37 284.93 C 486.12 283.87, 486.98 284.26, 487.59 283.67 C 488.19 283.09, 488.36 282.41, 487.41 281.99" style="stroke: black; fill: black;"/><path d="M 950.65,202.80 C 950.42 204.05, 950.48 205.25, 951.09 208.74 C 951.71 212.23, 952.47 214.45, 953.74 220.24 C 955.00 226.03, 955.87 230.11, 957.43 237.70 C 959.00 245.29, 959.91 249.94, 961.55 258.19 C 963.19 266.44, 963.94 270.94, 965.63 278.97 C 967.32 287.00, 968.15 291.29, 969.99 298.33 C 971.84 305.36, 972.66 308.58, 974.87 314.13 C 977.07 319.67, 978.14 322.09, 981.01 326.04 C 983.87 330.00, 985.46 331.79, 989.17 333.90 C 992.89 336.01, 995.07 336.50, 999.58 336.61 C 1004.10 336.72, 1006.81 336.09, 1011.75 334.45 C 1016.68 332.82, 1019.55 331.39, 1024.25 328.45 C 1028.95 325.52, 1031.43 323.49, 1035.24 319.79 C 1039.04 316.10, 1040.91 313.85, 1043.26 309.99 C 1045.60 306.13, 1046.61 304.02, 1046.97 300.50 C 1047.33 296.98, 1046.86 295.00, 1045.06 292.39 C 1043.25 289.79, 1041.32 288.61, 1037.94 287.47 C 1034.55 286.33, 1031.99 286.17, 1028.11 286.71 C 1024.24 287.25, 1021.69 288.04, 1018.56 290.19 C 1015.44 292.34, 1013.74 294.07, 1012.48 297.47 C 1011.22 300.86, 1011.04 303.27, 1012.26 307.17 C 1013.47 311.07, 1014.97 313.29, 1018.56 316.97 C 1022.15 320.66, 1024.81 322.52, 1030.22 325.59 C 1035.64 328.66, 1039.01 330.03, 1045.62 332.32 C 1052.23 334.61, 1056.18 335.54, 1063.27 337.04 C 1070.37 338.53, 1074.30 339.07, 1081.09 339.80 C 1087.87 340.54, 1091.31 340.59, 1097.18 340.71 C 1103.05 340.84, 1105.91 340.73, 1110.45 340.42 C 1114.99 340.12, 1116.91 339.82, 1119.87 339.20 C 1122.83 338.57, 1124.22 337.94, 1125.24 337.30 C 1126.26 336.66, 1126.14 336.18, 1124.97 336.01 C 1123.80 335.84, 1122.34 336.06, 1119.40 336.44 C 1116.45 336.83, 1114.68 337.50, 1110.24 337.94 C 1105.80 338.39, 1103.00 338.65, 1097.20 338.64 C 1091.41 338.64, 1087.99 338.61, 1081.28 337.92 C 1074.57 337.24, 1070.66 336.71, 1063.66 335.21 C 1056.66 333.72, 1052.74 332.76, 1046.28 330.45 C 1039.82 328.13, 1036.52 326.70, 1031.35 323.64 C 1026.19 320.58, 1023.70 318.63, 1020.46 315.16 C 1017.21 311.69, 1016.09 309.59, 1015.12 306.30 C 1014.14 303.00, 1014.49 301.30, 1015.58 298.67 C 1016.66 296.05, 1017.93 294.83, 1020.54 293.18 C 1023.15 291.52, 1025.36 290.84, 1028.63 290.39 C 1031.89 289.94, 1034.10 290.13, 1036.85 290.92 C 1039.60 291.71, 1040.95 292.49, 1042.36 294.34 C 1043.78 296.19, 1044.21 297.33, 1043.92 300.18 C 1043.63 303.03, 1042.99 305.02, 1040.90 308.58 C 1038.81 312.15, 1037.06 314.44, 1033.47 317.99 C 1029.87 321.54, 1027.43 323.52, 1022.93 326.33 C 1018.42 329.14, 1015.60 330.48, 1010.94 332.02 C 1006.28 333.56, 1003.74 334.08, 999.63 334.02 C 995.52 333.97, 993.75 333.60, 990.38 331.74 C 987.01 329.89, 985.53 328.41, 982.77 324.74 C 980.02 321.08, 978.85 318.78, 976.63 313.41 C 974.40 308.04, 973.51 304.85, 971.63 297.89 C 969.74 290.94, 968.88 286.64, 967.20 278.64 C 965.51 270.63, 964.77 266.13, 963.20 257.87 C 961.64 249.61, 960.80 244.94, 959.39 237.32 C 957.98 229.69, 957.24 225.58, 956.16 219.75 C 955.09 213.92, 954.79 211.60, 954.02 208.15 C 953.24 204.70, 952.95 203.56, 952.28 202.49 C 951.61 201.42, 950.89 201.55, 950.65 202.80" style="stroke: black; fill: black;"/><path d="M 1312.37,210.95 C 1312.28 210.11, 1311.99 209.04, 1310.66 208.02 C 1309.32 206.99, 1308.22 206.15, 1305.69 205.84 C 1303.17 205.53, 1301.55 205.51, 1298.01 206.48 C 1294.48 207.45, 1292.42 208.15, 1288.03 210.67 C 1283.63 213.20, 1280.98 214.98, 1276.03 219.11 C 1271.07 223.23, 1268.05 225.87, 1263.25 231.30 C 1258.44 236.73, 1255.82 239.96, 1252.00 246.24 C 1248.17 252.53, 1246.24 256.22, 1244.12 262.72 C 1242.00 269.23, 1241.26 272.76, 1241.40 278.76 C 1241.53 284.77, 1242.29 287.72, 1244.79 292.76 C 1247.30 297.80, 1249.32 300.19, 1253.93 303.96 C 1258.54 307.74, 1261.79 309.36, 1267.85 311.63 C 1273.90 313.89, 1277.50 314.45, 1284.22 315.29 C 1290.94 316.13, 1294.65 316.04, 1301.45 315.85 C 1308.25 315.65, 1311.90 315.29, 1318.22 314.32 C 1324.54 313.35, 1327.73 312.37, 1333.07 310.98 C 1338.41 309.59, 1340.89 308.76, 1344.93 307.35 C 1348.97 305.95, 1350.70 305.27, 1353.27 303.96 C 1355.84 302.66, 1356.62 301.67, 1357.77 300.82 C 1358.93 299.97, 1358.78 299.57, 1359.05 299.72 C 1359.31 299.88, 1358.89 300.22, 1359.09 301.61 C 1359.30 302.99, 1359.22 304.15, 1360.07 306.65 C 1360.92 309.15, 1361.81 310.79, 1363.35 314.12 C 1364.90 317.44, 1365.90 319.37, 1367.80 323.28 C 1369.71 327.19, 1370.92 329.36, 1372.89 333.67 C 1374.86 337.99, 1376.01 340.42, 1377.67 344.85 C 1379.33 349.28, 1380.16 351.58, 1381.19 355.82 C 1382.22 360.05, 1382.75 362.44, 1382.81 366.03 C 1382.86 369.61, 1382.67 371.34, 1381.46 373.74 C 1380.25 376.14, 1379.30 376.79, 1376.76 378.01 C 1374.21 379.24, 1372.57 379.62, 1368.75 379.85 C 1364.93 380.08, 1362.38 380.00, 1357.65 379.17 C 1352.92 378.34, 1350.15 377.50, 1345.10 375.70 C 1340.04 373.89, 1337.05 372.76, 1332.39 370.12 C 1327.73 367.48, 1325.36 365.72, 1321.80 362.48 C 1318.23 359.25, 1316.54 357.36, 1314.55 353.95 C 1312.57 350.54, 1311.84 348.83, 1311.88 345.43 C 1311.91 342.04, 1312.55 340.40, 1314.74 336.98 C 1316.94 333.56, 1318.71 331.82, 1322.85 328.33 C 1326.98 324.85, 1329.83 322.77, 1335.44 319.54 C 1341.04 316.31, 1344.62 314.65, 1350.87 312.18 C 1357.11 309.71, 1360.55 308.64, 1366.68 307.18 C 1372.80 305.73, 1375.94 305.15, 1381.47 304.89 C 1387.01 304.63, 1389.68 304.77, 1394.33 305.88 C 1398.98 307.00, 1401.03 308.19, 1404.73 310.45 C 1408.44 312.71, 1409.99 314.39, 1412.85 317.20 C 1415.70 320.01, 1416.97 321.83, 1419.00 324.49 C 1421.02 327.16, 1421.72 328.88, 1422.96 330.54 C 1424.21 332.20, 1424.72 332.68, 1425.20 332.79 C 1425.68 332.89, 1425.82 332.33, 1425.35 331.05 C 1424.88 329.76, 1424.42 328.47, 1422.84 326.37 C 1421.27 324.27, 1419.60 322.97, 1417.48 320.55 C 1415.36 318.14, 1414.02 316.69, 1412.25 314.28 C 1410.48 311.87, 1409.59 310.50, 1408.63 308.49 C 1407.68 306.49, 1407.33 305.72, 1407.48 304.24 C 1407.64 302.77, 1407.95 302.23, 1409.41 301.11 C 1410.87 299.99, 1411.99 299.60, 1414.80 298.63 C 1417.61 297.65, 1419.34 297.06, 1423.44 296.25 C 1427.54 295.44, 1430.08 295.11, 1435.31 294.57 C 1440.55 294.04, 1443.80 293.93, 1449.61 293.56 C 1455.43 293.20, 1458.73 293.15, 1464.39 292.75 C 1470.04 292.35, 1473.06 292.03, 1477.86 291.56 C 1482.67 291.09, 1485.04 290.93, 1488.42 290.40 C 1491.79 289.87, 1493.25 289.67, 1494.75 288.90 C 1496.25 288.14, 1496.60 287.40, 1495.91 286.58 C 1495.22 285.76, 1493.94 284.85, 1491.30 284.81 C 1488.67 284.77, 1486.41 285.25, 1482.73 286.40 C 1479.06 287.54, 1476.59 288.48, 1472.92 290.55 C 1469.25 292.62, 1467.01 293.94, 1464.38 296.75 C 1461.74 299.57, 1460.52 301.40, 1459.74 304.62 C 1458.95 307.84, 1459.18 309.86, 1460.46 312.86 C 1461.74 315.85, 1463.29 317.32, 1466.13 319.59 C 1468.98 321.86, 1470.96 322.77, 1474.71 324.19 C 1478.45 325.60, 1480.80 326.22, 1484.86 326.67 C 1488.92 327.12, 1491.31 327.18, 1495.00 326.45 C 1498.69 325.72, 1500.43 324.84, 1503.31 323.02 C 1506.20 321.21, 1507.54 319.85, 1509.44 317.38 C 1511.33 314.90, 1511.94 312.96, 1512.80 310.65 C 1513.66 308.35, 1513.32 306.90, 1513.72 305.86 C 1514.12 304.81, 1514.03 304.82, 1514.80 305.43 C 1515.57 306.03, 1515.83 307.16, 1517.56 308.89 C 1519.30 310.63, 1520.76 311.92, 1523.47 314.11 C 1526.18 316.29, 1527.96 317.83, 1531.11 319.81 C 1534.25 321.79, 1536.08 322.87, 1539.20 324.01 C 1542.33 325.15, 1543.95 325.50, 1546.74 325.51 C 1549.52 325.51, 1550.90 325.22, 1553.11 324.02 C 1555.32 322.82, 1556.39 321.65, 1557.80 319.52 C 1559.20 317.38, 1559.32 315.77, 1560.12 313.36 C 1560.93 310.95, 1561.09 309.54, 1561.83 307.46 C 1562.57 305.38, 1562.97 304.17, 1563.82 302.96 C 1564.67 301.76, 1564.80 301.40, 1566.07 301.44 C 1567.34 301.48, 1568.20 302.26, 1570.17 303.15 C 1572.15 304.05, 1573.54 304.73, 1575.95 305.92 C 1578.36 307.10, 1579.54 307.75, 1582.23 309.08 C 1584.92 310.42, 1586.54 311.33, 1589.40 312.61 C 1592.25 313.89, 1593.72 314.45, 1596.51 315.47 C 1599.30 316.50, 1600.50 316.96, 1603.33 317.73 C 1606.15 318.50, 1607.79 318.98, 1610.63 319.33 C 1613.47 319.68, 1614.92 319.76, 1617.53 319.48 C 1620.15 319.21, 1622.51 318.66, 1623.71 317.94 C 1624.91 317.23, 1624.80 316.43, 1623.55 315.91 C 1622.30 315.38, 1619.93 315.50, 1617.46 315.31 C 1614.99 315.12, 1613.79 315.31, 1611.19 314.97 C 1608.58 314.63, 1607.08 314.29, 1604.43 313.60 C 1601.79 312.91, 1600.61 312.49, 1597.96 311.52 C 1595.31 310.54, 1593.91 310.01, 1591.18 308.72 C 1588.45 307.44, 1586.93 306.54, 1584.32 305.10 C 1581.71 303.65, 1580.66 302.74, 1578.14 301.49 C 1575.61 300.24, 1574.17 299.54, 1571.70 298.85 C 1569.23 298.17, 1567.92 297.76, 1565.80 298.07 C 1563.67 298.38, 1562.74 298.90, 1561.07 300.41 C 1559.40 301.92, 1558.53 303.31, 1557.43 305.63 C 1556.34 307.94, 1556.23 309.62, 1555.60 311.99 C 1554.96 314.37, 1555.10 315.71, 1554.26 317.49 C 1553.42 319.28, 1552.88 320.07, 1551.40 320.92 C 1549.91 321.76, 1548.99 321.86, 1546.84 321.73 C 1544.68 321.60, 1543.32 321.32, 1540.62 320.25 C 1537.93 319.19, 1536.19 318.32, 1533.35 316.39 C 1530.51 314.45, 1528.98 312.78, 1526.43 310.57 C 1523.88 308.35, 1522.74 306.85, 1520.59 305.31 C 1518.43 303.76, 1517.48 303.09, 1515.65 302.84 C 1513.82 302.60, 1512.82 302.86, 1511.45 304.08 C 1510.08 305.30, 1509.87 306.76, 1508.80 308.94 C 1507.74 311.12, 1507.62 312.77, 1506.12 314.98 C 1504.63 317.19, 1503.69 318.38, 1501.33 319.99 C 1498.97 321.61, 1497.54 322.41, 1494.33 323.07 C 1491.11 323.72, 1488.93 323.70, 1485.25 323.27 C 1481.58 322.83, 1479.34 322.20, 1475.96 320.90 C 1472.59 319.59, 1470.82 318.64, 1468.39 316.74 C 1465.95 314.83, 1464.83 313.63, 1463.79 311.38 C 1462.75 309.13, 1462.56 307.92, 1463.18 305.48 C 1463.81 303.04, 1464.62 301.51, 1466.92 299.19 C 1469.22 296.87, 1471.27 295.57, 1474.68 293.88 C 1478.10 292.18, 1480.56 291.65, 1483.99 290.73 C 1487.42 289.81, 1489.50 289.90, 1491.83 289.28 C 1494.17 288.66, 1495.18 288.16, 1495.67 287.62 C 1496.15 287.08, 1495.79 286.67, 1494.24 286.58 C 1492.69 286.48, 1491.26 286.65, 1487.92 287.13 C 1484.59 287.61, 1482.30 288.33, 1477.56 288.98 C 1472.82 289.63, 1469.83 289.95, 1464.21 290.39 C 1458.59 290.82, 1455.30 290.85, 1449.47 291.15 C 1443.65 291.45, 1440.40 291.51, 1435.08 291.88 C 1429.77 292.26, 1427.22 292.44, 1422.90 293.02 C 1418.59 293.61, 1416.68 293.73, 1413.50 294.80 C 1410.31 295.87, 1408.85 296.58, 1407.00 298.37 C 1405.16 300.16, 1404.69 301.43, 1404.26 303.75 C 1403.83 306.07, 1404.01 307.35, 1404.87 309.97 C 1405.72 312.58, 1406.78 314.05, 1408.52 316.81 C 1410.26 319.57, 1411.52 321.12, 1413.56 323.77 C 1415.60 326.42, 1416.75 328.16, 1418.72 330.04 C 1420.68 331.92, 1421.87 332.59, 1423.37 333.16 C 1424.86 333.72, 1425.64 333.74, 1426.19 332.86 C 1426.74 331.98, 1426.99 330.88, 1426.12 328.77 C 1425.24 326.65, 1424.06 325.02, 1421.80 322.28 C 1419.54 319.54, 1417.99 317.88, 1414.83 315.07 C 1411.68 312.27, 1410.03 310.54, 1406.03 308.26 C 1402.03 305.98, 1399.78 304.75, 1394.84 303.66 C 1389.91 302.57, 1387.09 302.49, 1381.37 302.80 C 1375.64 303.12, 1372.46 303.75, 1366.21 305.26 C 1359.97 306.76, 1356.50 307.83, 1350.13 310.31 C 1343.76 312.79, 1340.13 314.43, 1334.37 317.66 C 1328.60 320.90, 1325.68 322.91, 1321.31 326.49 C 1316.94 330.07, 1314.96 331.78, 1312.53 335.56 C 1310.09 339.34, 1309.19 341.45, 1309.14 345.40 C 1309.09 349.34, 1310.06 351.49, 1312.26 355.28 C 1314.46 359.07, 1316.34 360.95, 1320.13 364.34 C 1323.91 367.73, 1326.37 369.48, 1331.19 372.23 C 1336.01 374.97, 1339.04 376.13, 1344.23 378.07 C 1349.41 380.01, 1352.19 380.95, 1357.13 381.92 C 1362.07 382.90, 1364.70 383.15, 1368.91 382.96 C 1373.13 382.77, 1375.11 382.51, 1378.21 380.96 C 1381.30 379.42, 1382.85 378.22, 1384.38 375.22 C 1385.91 372.22, 1385.95 369.99, 1385.86 365.97 C 1385.77 361.95, 1385.05 359.55, 1383.93 355.14 C 1382.80 350.72, 1381.92 348.42, 1380.24 343.89 C 1378.56 339.36, 1377.41 336.90, 1375.52 332.50 C 1373.63 328.11, 1372.45 325.92, 1370.78 321.93 C 1369.12 317.94, 1368.35 315.99, 1367.19 312.57 C 1366.03 309.16, 1365.96 307.35, 1364.98 304.85 C 1364.00 302.36, 1363.39 301.45, 1362.31 300.10 C 1361.24 298.75, 1360.77 298.45, 1359.62 298.11 C 1358.46 297.76, 1358.13 297.85, 1356.54 298.39 C 1354.95 298.94, 1354.18 299.54, 1351.66 300.84 C 1349.15 302.14, 1347.82 303.28, 1343.99 304.88 C 1340.15 306.49, 1337.70 307.36, 1332.49 308.85 C 1327.27 310.35, 1324.13 311.34, 1317.91 312.36 C 1311.69 313.38, 1308.08 313.74, 1301.39 313.94 C 1294.70 314.14, 1291.03 314.21, 1284.46 313.37 C 1277.89 312.54, 1274.40 311.95, 1268.55 309.75 C 1262.70 307.56, 1259.61 305.97, 1255.22 302.39 C 1250.82 298.81, 1248.96 296.60, 1246.58 291.87 C 1244.19 287.14, 1243.46 284.43, 1243.31 278.72 C 1243.17 273.00, 1243.82 269.60, 1245.87 263.29 C 1247.92 256.99, 1249.79 253.33, 1253.56 247.20 C 1257.33 241.06, 1259.92 237.87, 1264.70 232.61 C 1269.48 227.34, 1272.53 224.76, 1277.46 220.88 C 1282.39 217.00, 1285.09 215.31, 1289.38 213.20 C 1293.67 211.09, 1295.73 210.89, 1298.89 210.33 C 1302.06 209.76, 1303.21 210.19, 1305.20 210.37 C 1307.19 210.56, 1307.68 210.88, 1308.86 211.25 C 1310.04 211.63, 1310.39 212.30, 1311.09 212.24 C 1311.79 212.18, 1312.46 211.80, 1312.37 210.95" style="stroke: black; fill: black;"/><path d="M 1659.16,302.45 C 1658.82 301.60, 1658.11 300.79, 1656.56 299.85 C 1655.00 298.92, 1653.83 298.12, 1651.40 297.78 C 1648.96 297.44, 1647.04 297.46, 1644.38 298.14 C 1641.73 298.83, 1640.23 299.63, 1638.11 301.20 C 1635.99 302.77, 1634.95 303.97, 1633.77 305.97 C 1632.58 307.98, 1632.16 309.29, 1632.18 311.24 C 1632.20 313.19, 1632.62 314.29, 1633.86 315.71 C 1635.10 317.12, 1636.26 317.72, 1638.36 318.33 C 1640.46 318.94, 1641.86 318.83, 1644.36 318.74 C 1646.85 318.65, 1648.23 318.20, 1650.83 317.89 C 1653.42 317.59, 1654.92 317.10, 1657.34 317.22 C 1659.76 317.35, 1660.78 317.29, 1662.92 318.51 C 1665.06 319.73, 1665.92 320.41, 1668.04 323.33 C 1670.16 326.26, 1671.38 328.15, 1673.53 333.13 C 1675.69 338.11, 1676.74 341.52, 1678.82 348.23 C 1680.90 354.94, 1682.17 358.97, 1683.94 366.68 C 1685.71 374.39, 1686.61 378.75, 1687.67 386.77 C 1688.72 394.80, 1689.11 399.25, 1689.21 406.79 C 1689.31 414.33, 1689.22 418.16, 1688.15 424.49 C 1687.09 430.83, 1686.25 433.86, 1683.87 438.47 C 1681.49 443.08, 1679.85 444.89, 1676.25 447.56 C 1672.66 450.22, 1670.48 451.09, 1665.89 451.79 C 1661.29 452.48, 1658.48 452.33, 1653.29 451.04 C 1648.10 449.75, 1644.90 448.39, 1639.94 445.33 C 1634.98 442.26, 1632.18 440.20, 1628.49 435.71 C 1624.81 431.21, 1623.08 428.47, 1621.51 422.85 C 1619.94 417.23, 1619.75 413.94, 1620.63 407.59 C 1621.51 401.24, 1622.75 397.80, 1625.91 391.10 C 1629.07 384.39, 1631.32 380.71, 1636.43 374.07 C 1641.54 367.44, 1644.85 363.96, 1651.44 357.91 C 1658.03 351.87, 1661.98 349.06, 1669.37 343.85 C 1676.76 338.64, 1681.06 336.30, 1688.39 331.87 C 1695.72 327.45, 1699.53 325.45, 1706.02 321.73 C 1712.51 318.02, 1715.67 316.34, 1720.85 313.32 C 1726.03 310.30, 1728.43 309.10, 1731.94 306.64 C 1735.45 304.18, 1737.10 303.18, 1738.41 301.02 C 1739.72 298.87, 1739.61 297.42, 1738.48 295.86 C 1737.35 294.30, 1735.66 293.43, 1732.75 293.23 C 1729.85 293.03, 1727.45 293.54, 1723.96 294.86 C 1720.47 296.18, 1717.86 297.23, 1715.28 299.84 C 1712.71 302.46, 1711.14 304.57, 1711.08 307.93 C 1711.01 311.30, 1711.92 313.36, 1714.95 316.67 C 1717.98 319.99, 1720.51 321.43, 1726.22 324.51 C 1731.94 327.59, 1736.12 329.24, 1743.54 332.06 C 1750.97 334.88, 1755.40 336.38, 1763.34 338.62 C 1771.28 340.85, 1776.15 341.75, 1783.24 343.24 C 1790.33 344.74, 1793.80 345.34, 1798.78 346.10 C 1803.77 346.87, 1806.26 347.16, 1808.18 347.09 C 1810.09 347.01, 1810.18 346.29, 1808.36 345.73 C 1806.54 345.17, 1804.03 345.12, 1799.08 344.27 C 1794.14 343.41, 1790.67 342.93, 1783.62 341.47 C 1776.56 340.00, 1771.69 339.18, 1763.81 336.95 C 1755.93 334.71, 1751.53 333.17, 1744.23 330.30 C 1736.93 327.42, 1732.76 325.64, 1727.31 322.55 C 1721.85 319.47, 1719.54 317.76, 1716.95 314.87 C 1714.36 311.97, 1714.16 310.50, 1714.36 308.09 C 1714.57 305.67, 1715.75 304.58, 1717.98 302.78 C 1720.22 300.99, 1722.55 300.19, 1725.53 299.11 C 1728.52 298.04, 1730.60 297.79, 1732.90 297.40 C 1735.21 297.01, 1736.38 296.75, 1737.05 297.16 C 1737.73 297.58, 1737.58 297.99, 1736.27 299.48 C 1734.95 300.97, 1733.77 302.18, 1730.49 304.62 C 1727.21 307.06, 1724.92 308.54, 1719.86 311.68 C 1714.81 314.83, 1711.66 316.55, 1705.21 320.34 C 1698.77 324.12, 1694.96 326.15, 1687.63 330.62 C 1680.30 335.08, 1675.99 337.44, 1668.55 342.68 C 1661.11 347.92, 1657.12 350.75, 1650.45 356.83 C 1643.78 362.92, 1640.41 366.41, 1635.19 373.11 C 1629.97 379.82, 1627.65 383.52, 1624.37 390.36 C 1621.09 397.21, 1619.76 400.73, 1618.81 407.33 C 1617.86 413.93, 1618.00 417.43, 1619.61 423.37 C 1621.22 429.31, 1623.04 432.26, 1626.87 437.02 C 1630.70 441.79, 1633.60 443.95, 1638.77 447.20 C 1643.94 450.45, 1647.24 451.89, 1652.73 453.26 C 1658.23 454.64, 1661.27 454.86, 1666.24 454.07 C 1671.21 453.28, 1673.69 452.26, 1677.58 449.32 C 1681.46 446.39, 1683.19 444.29, 1685.66 439.38 C 1688.13 434.47, 1688.89 431.31, 1689.93 424.79 C 1690.97 418.26, 1691.00 414.41, 1690.87 406.77 C 1690.75 399.12, 1690.34 394.66, 1689.30 386.56 C 1688.25 378.47, 1687.36 374.07, 1685.66 366.29 C 1683.96 358.51, 1682.75 354.47, 1680.79 347.64 C 1678.83 340.82, 1677.90 337.39, 1675.87 332.17 C 1673.84 326.96, 1672.82 324.95, 1670.64 321.56 C 1668.47 318.17, 1667.56 316.97, 1665.00 315.22 C 1662.44 313.46, 1660.76 313.25, 1657.83 312.79 C 1654.90 312.33, 1653.12 312.70, 1650.36 312.90 C 1647.60 313.10, 1646.26 313.55, 1644.02 313.79 C 1641.78 314.03, 1640.73 314.18, 1639.16 314.09 C 1637.59 314.01, 1636.89 313.90, 1636.18 313.38 C 1635.48 312.86, 1635.40 312.49, 1635.62 311.48 C 1635.85 310.47, 1636.27 309.64, 1637.30 308.34 C 1638.33 307.05, 1639.10 306.07, 1640.76 305.02 C 1642.41 303.97, 1643.55 303.54, 1645.57 303.10 C 1647.60 302.66, 1648.98 302.71, 1650.87 302.82 C 1652.77 302.93, 1653.58 303.39, 1655.06 303.65 C 1656.54 303.91, 1657.45 304.37, 1658.27 304.13 C 1659.09 303.89, 1659.50 303.31, 1659.16 302.45" style="stroke: black; fill: black;"/></svg>