<svg xmlns="http://www.w3.org/2000/svg" id="canvas" viewBox="524.488 360.501 799.572 179.173"><path d="M 649.30,365.04 C 647.77 363.65, 646.00 363.16, 642.26 363.74 C 638.53 364.32, 636.11 365.44, 630.62 367.94 C 625.13 370.44, 621.77 371.61, 614.82 376.24 C 607.88 380.88, 604.06 383.94, 595.90 391.13 C 587.74 398.32, 582.68 402.86, 574.02 412.18 C 565.37 421.51, 560.18 427.14, 552.61 437.75 C 545.05 448.37, 541.14 454.75, 536.20 465.26 C 531.27 475.78, 528.97 481.15, 527.94 490.32 C 526.92 499.48, 527.49 503.96, 531.07 511.09 C 534.66 518.23, 538.13 521.37, 545.86 525.98 C 553.59 530.59, 558.96 532.00, 569.72 534.14 C 580.48 536.28, 587.12 536.61, 599.64 536.67 C 612.16 536.73, 619.39 536.03, 632.30 534.46 C 645.21 532.88, 652.45 531.41, 664.19 528.79 C 675.93 526.18, 681.70 524.63, 690.99 521.40 C 700.29 518.18, 704.29 516.56, 710.65 512.68 C 717.01 508.80, 719.78 506.64, 722.80 501.99 C 725.82 497.34, 726.55 494.24, 725.75 489.44 C 724.95 484.63, 722.83 482.04, 718.78 477.95 C 714.73 473.85, 711.71 471.88, 705.51 468.96 C 699.30 466.05, 695.41 465.09, 687.75 463.37 C 680.08 461.66, 675.16 461.19, 667.18 460.39 C 659.19 459.59, 654.71 459.48, 647.84 459.38 C 640.96 459.29, 637.35 458.97, 632.80 459.91 C 628.25 460.86, 626.03 461.74, 625.11 464.11 C 624.18 466.48, 624.91 469.87, 628.17 471.75 C 631.42 473.63, 634.84 473.15, 641.36 473.51 C 647.88 473.86, 652.53 473.66, 660.79 473.51 C 669.05 473.35, 674.04 473.00, 682.68 472.73 C 691.31 472.46, 696.04 472.36, 703.97 472.15 C 711.91 471.93, 716.11 471.58, 722.37 471.66 C 728.63 471.74, 731.30 471.91, 735.28 472.55 C 739.25 473.19, 740.18 474.29, 742.25 474.86 C 744.31 475.43, 744.40 475.18, 745.60 475.40 C 746.80 475.62, 747.09 476.40, 748.24 475.96 C 749.39 475.53, 751.01 474.57, 751.37 473.23 C 751.72 471.88, 751.29 470.79, 750.02 469.24 C 748.76 467.69, 747.87 466.36, 745.04 465.48 C 742.20 464.59, 740.42 464.81, 735.85 464.82 C 731.29 464.82, 728.64 465.12, 722.22 465.50 C 715.81 465.88, 711.71 466.36, 703.78 466.71 C 695.85 467.06, 691.16 467.19, 682.57 467.25 C 673.99 467.30, 668.96 467.32, 660.86 466.99 C 652.76 466.67, 648.14 466.38, 642.07 465.60 C 635.99 464.83, 633.42 462.92, 630.49 463.13 C 627.57 463.34, 626.76 465.73, 627.42 466.65 C 628.08 467.57, 629.70 467.88, 633.80 467.72 C 637.90 467.56, 641.37 466.13, 647.93 465.84 C 654.50 465.54, 658.93 465.55, 666.62 466.25 C 674.30 466.95, 679.17 467.56, 686.35 469.33 C 693.53 471.10, 697.07 472.32, 702.52 475.09 C 707.97 477.86, 710.35 480.01, 713.61 483.17 C 716.88 486.32, 718.04 487.72, 718.86 490.85 C 719.69 493.97, 719.90 495.24, 717.74 498.79 C 715.57 502.35, 713.67 504.85, 708.06 508.62 C 702.44 512.40, 698.58 514.32, 689.64 517.65 C 680.71 520.99, 674.95 522.64, 663.40 525.31 C 651.85 527.98, 644.63 529.46, 631.88 530.99 C 619.14 532.53, 611.95 533.15, 599.67 532.99 C 587.40 532.82, 580.85 532.32, 570.52 530.18 C 560.20 528.04, 555.18 526.50, 548.04 522.30 C 540.90 518.11, 538.06 515.50, 534.82 509.19 C 531.58 502.88, 530.91 499.23, 531.84 490.75 C 532.78 482.27, 534.77 476.99, 539.50 466.80 C 544.23 456.61, 548.04 450.22, 555.49 439.81 C 562.95 429.40, 568.11 423.83, 576.76 414.76 C 585.41 405.70, 590.54 401.22, 598.75 394.49 C 606.97 387.77, 610.89 384.98, 617.82 381.14 C 624.74 377.30, 628.08 376.83, 633.38 375.27 C 638.68 373.71, 641.00 374.26, 644.30 373.35 C 647.60 372.44, 648.89 372.38, 649.89 370.71 C 650.89 369.05, 650.82 366.44, 649.30 365.04" style="stroke: black; fill: black;"/><path d="M 799.41,459.42 C 798.77 457.29, 797.48 455.16, 794.27 454.28 C 791.07 453.41, 788.31 453.87, 783.40 455.04 C 778.50 456.21, 774.92 457.04, 769.75 460.12 C 764.58 463.20, 761.88 465.78, 757.57 470.44 C 753.26 475.10, 750.87 478.10, 748.20 483.43 C 745.53 488.77, 744.68 491.78, 744.22 497.12 C 743.76 502.45, 744.14 505.64, 745.92 510.10 C 747.69 514.56, 749.61 516.67, 753.10 519.43 C 756.59 522.18, 758.99 522.84, 763.37 523.87 C 767.75 524.89, 770.39 525.18, 775.02 524.54 C 779.65 523.90, 782.22 523.02, 786.52 520.66 C 790.82 518.30, 792.79 516.39, 796.53 512.73 C 800.26 509.07, 802.17 506.63, 805.20 502.36 C 808.23 498.10, 810.08 495.36, 811.69 491.40 C 813.31 487.45, 814.13 484.80, 813.27 482.61 C 812.42 480.41, 809.31 479.50, 807.43 480.43 C 805.55 481.36, 804.04 483.70, 803.86 487.25 C 803.69 490.80, 804.67 493.71, 806.57 498.18 C 808.46 502.65, 810.10 505.65, 813.35 509.60 C 816.61 513.56, 818.72 515.37, 822.85 517.94 C 826.97 520.50, 829.41 521.40, 833.99 522.43 C 838.57 523.46, 841.14 523.44, 845.76 523.08 C 850.38 522.73, 852.88 522.40, 857.10 520.66 C 861.31 518.92, 863.51 517.34, 866.84 514.39 C 870.17 511.44, 871.31 509.52, 873.73 505.90 C 876.16 502.29, 878.47 499.62, 878.98 496.31 C 879.50 493.01, 878.08 490.67, 876.32 489.37 C 874.56 488.07, 871.77 488.26, 870.19 489.81 C 868.61 491.36, 867.84 493.60, 868.42 497.14 C 869.00 500.68, 870.76 503.47, 873.11 507.50 C 875.46 511.53, 876.75 514.76, 880.17 517.27 C 883.59 519.78, 886.45 520.51, 890.19 520.06 C 893.93 519.61, 896.86 518.22, 898.87 515.02 C 900.89 511.82, 900.44 508.89, 900.27 504.06 C 900.10 499.24, 899.03 495.85, 898.03 490.89 C 897.03 485.92, 896.04 483.25, 895.27 479.24 C 894.49 475.24, 894.59 473.12, 894.15 470.86 C 893.71 468.61, 892.67 468.48, 893.08 467.96 C 893.49 467.44, 893.72 468.47, 896.20 468.26 C 898.67 468.04, 900.73 467.06, 905.47 466.87 C 910.21 466.68, 913.44 467.00, 919.91 467.28 C 926.38 467.56, 930.57 467.62, 937.83 468.26 C 945.10 468.90, 949.19 469.61, 956.24 470.49 C 963.29 471.37, 966.83 471.92, 973.09 472.66 C 979.34 473.39, 982.53 473.71, 987.51 474.15 C 992.50 474.60, 994.27 475.32, 998.00 474.89 C 1001.73 474.46, 1003.63 473.93, 1006.18 472.01 C 1008.73 470.08, 1009.87 468.40, 1010.76 465.25 C 1011.65 462.11, 1012.04 459.61, 1010.63 456.26 C 1009.21 452.92, 1007.30 450.40, 1003.69 448.52 C 1000.08 446.65, 997.30 446.69, 992.58 446.88 C 987.86 447.07, 984.88 447.60, 980.09 449.46 C 975.30 451.32, 972.72 452.75, 968.64 456.18 C 964.56 459.61, 962.32 461.95, 959.69 466.63 C 957.06 471.31, 955.68 474.36, 955.48 479.56 C 955.28 484.77, 956.18 487.88, 958.70 492.65 C 961.22 497.42, 963.26 499.86, 968.06 503.42 C 972.86 506.98, 976.24 508.39, 982.70 510.46 C 989.17 512.53, 993.05 512.99, 1000.39 513.77 C 1007.73 514.54, 1011.77 514.72, 1019.40 514.34 C 1027.04 513.97, 1031.71 513.06, 1038.57 511.89 C 1045.43 510.73, 1048.75 509.94, 1053.70 508.50 C 1058.65 507.07, 1061.69 506.42, 1063.32 504.71 C 1064.94 502.99, 1064.07 500.42, 1061.81 499.92 C 1059.56 499.43, 1056.93 501.07, 1052.05 502.21 C 1047.18 503.35, 1044.04 504.39, 1037.45 505.62 C 1030.86 506.84, 1026.36 507.95, 1019.09 508.34 C 1011.82 508.74, 1007.95 508.48, 1001.11 507.60 C 994.27 506.73, 990.58 506.01, 984.89 503.97 C 979.20 501.94, 976.44 500.44, 972.65 497.43 C 968.87 494.42, 967.69 492.40, 965.98 488.92 C 964.28 485.44, 963.85 483.58, 964.13 480.04 C 964.41 476.49, 965.29 474.47, 967.38 471.18 C 969.46 467.90, 971.36 465.97, 974.56 463.60 C 977.75 461.22, 979.84 460.21, 983.37 459.30 C 986.90 458.39, 989.58 458.63, 992.20 459.04 C 994.83 459.46, 995.11 460.46, 996.51 461.38 C 997.92 462.31, 998.16 463.17, 999.23 463.65 C 1000.30 464.14, 1001.49 463.82, 1001.88 463.82 C 1002.26 463.83, 1002.21 463.41, 1001.14 463.67 C 1000.07 463.94, 999.19 464.59, 996.51 465.14 C 993.83 465.69, 992.29 466.24, 987.72 466.43 C 983.16 466.62, 979.84 466.50, 973.70 466.08 C 967.55 465.66, 964.04 465.19, 957.00 464.33 C 949.96 463.48, 945.81 462.71, 938.52 461.79 C 931.23 460.88, 927.12 460.60, 920.55 459.77 C 913.99 458.93, 910.99 458.06, 905.72 457.60 C 900.45 457.13, 898.09 456.47, 894.19 457.44 C 890.29 458.40, 888.46 459.66, 886.22 462.42 C 883.98 465.17, 883.25 467.44, 883.00 471.21 C 882.75 474.99, 884.10 476.97, 884.98 481.29 C 885.87 485.61, 886.67 488.14, 887.41 492.81 C 888.15 497.48, 888.43 500.90, 888.69 504.64 C 888.95 508.38, 888.34 509.95, 888.71 511.50 C 889.08 513.05, 890.22 513.01, 890.54 512.40 C 890.87 511.79, 891.17 510.84, 890.34 508.45 C 889.51 506.07, 887.98 503.88, 886.41 500.48 C 884.83 497.07, 884.43 494.12, 882.47 491.42 C 880.51 488.71, 879.22 487.70, 876.61 486.95 C 874.01 486.20, 871.79 486.59, 869.44 487.65 C 867.09 488.71, 866.04 489.67, 864.86 492.24 C 863.68 494.80, 864.58 497.58, 863.54 500.48 C 862.50 503.38, 861.75 504.61, 859.66 506.75 C 857.57 508.88, 856.06 509.87, 853.10 511.15 C 850.14 512.43, 848.28 512.77, 844.86 513.14 C 841.44 513.51, 839.36 513.67, 835.99 513.01 C 832.63 512.35, 830.88 511.74, 828.03 509.84 C 825.18 507.94, 823.66 506.67, 821.74 503.51 C 819.83 500.35, 819.41 497.72, 818.46 494.04 C 817.52 490.35, 818.29 488.07, 817.03 485.07 C 815.78 482.08, 814.65 480.16, 812.19 479.08 C 809.74 478.00, 806.93 478.07, 804.77 479.68 C 802.61 481.29, 802.87 483.62, 801.39 487.13 C 799.91 490.64, 799.61 493.42, 797.36 497.24 C 795.11 501.06, 793.21 503.22, 790.15 506.21 C 787.09 509.20, 785.32 510.55, 782.04 512.20 C 778.77 513.84, 777.08 514.10, 773.78 514.43 C 770.48 514.75, 768.54 514.42, 765.56 513.84 C 762.58 513.26, 761.15 512.96, 758.87 511.51 C 756.59 510.06, 755.46 509.35, 754.16 506.59 C 752.86 503.82, 752.18 501.62, 752.37 497.68 C 752.56 493.75, 752.91 491.24, 755.10 486.89 C 757.29 482.54, 759.52 479.71, 763.30 475.94 C 767.08 472.17, 769.63 470.08, 774.00 468.03 C 778.38 465.98, 781.44 465.96, 785.18 465.69 C 788.91 465.42, 790.21 466.83, 792.68 466.68 C 795.15 466.54, 796.17 466.41, 797.52 464.96 C 798.87 463.51, 800.06 461.56, 799.41 459.42" style="stroke: black; fill: black;"/><path d="M 1074.77,398.55 C 1073.83 400.25, 1074.03 401.47, 1075.12 404.77 C 1076.20 408.08, 1077.90 409.80, 1080.19 415.07 C 1082.48 420.34, 1084.23 424.23, 1086.59 431.14 C 1088.95 438.04, 1089.85 442.25, 1091.99 449.61 C 1094.14 456.97, 1095.33 461.22, 1097.32 467.93 C 1099.30 474.63, 1100.42 477.62, 1101.92 483.13 C 1103.42 488.64, 1103.91 491.35, 1104.82 495.49 C 1105.73 499.63, 1105.46 501.71, 1106.48 503.84 C 1107.50 505.98, 1108.71 506.05, 1109.91 506.16 C 1111.11 506.27, 1112.02 504.96, 1112.48 504.38 C 1112.95 503.81, 1112.88 502.67, 1112.24 503.31 C 1111.61 503.94, 1109.49 506.60, 1109.32 507.55 C 1109.16 508.51, 1110.22 508.44, 1111.42 508.08 C 1112.62 507.72, 1114.25 507.26, 1115.33 505.76 C 1116.41 504.26, 1117.30 503.14, 1116.82 500.56 C 1116.35 497.98, 1114.63 496.76, 1112.94 492.86 C 1111.26 488.97, 1110.35 486.41, 1108.39 481.07 C 1106.42 475.72, 1105.21 472.77, 1103.11 466.15 C 1101.01 459.53, 1099.87 455.37, 1097.90 447.96 C 1095.93 440.55, 1095.20 436.27, 1093.24 429.10 C 1091.29 421.92, 1089.91 417.75, 1088.12 412.11 C 1086.33 406.46, 1085.96 404.04, 1084.30 400.87 C 1082.63 397.71, 1081.71 396.76, 1079.80 396.29 C 1077.90 395.83, 1075.70 396.86, 1074.77 398.55" style="stroke: black; fill: black;"/><path d="M 1062.50,480.33 C 1064.04 481.44, 1065.06 481.01, 1068.69 480.59 C 1072.33 480.16, 1074.66 479.20, 1080.68 478.21 C 1086.71 477.22, 1090.97 476.87, 1098.82 475.64 C 1106.67 474.41, 1111.69 473.84, 1119.94 472.06 C 1128.18 470.29, 1132.50 469.18, 1140.04 466.76 C 1147.59 464.35, 1151.49 463.02, 1157.67 459.97 C 1163.85 456.92, 1166.52 455.08, 1170.94 451.50 C 1175.36 447.92, 1177.08 446.19, 1179.75 442.06 C 1182.42 437.92, 1183.59 435.45, 1184.27 430.84 C 1184.96 426.22, 1184.54 423.34, 1183.19 418.98 C 1181.84 414.63, 1180.40 412.29, 1177.53 409.06 C 1174.65 405.83, 1172.61 403.75, 1168.81 402.82 C 1165.02 401.89, 1161.97 402.50, 1158.54 404.41 C 1155.11 406.32, 1152.82 408.48, 1151.68 412.37 C 1150.54 416.26, 1151.62 418.80, 1152.84 423.87 C 1154.05 428.94, 1155.34 432.12, 1157.74 437.70 C 1160.14 443.28, 1161.72 446.26, 1164.84 451.77 C 1167.96 457.27, 1169.92 460.05, 1173.34 465.21 C 1176.76 470.37, 1178.81 473.03, 1181.95 477.55 C 1185.08 482.07, 1186.36 484.10, 1189.03 487.82 C 1191.70 491.54, 1192.48 493.47, 1195.30 496.16 C 1198.11 498.86, 1199.74 500.26, 1203.09 501.30 C 1206.45 502.34, 1208.72 502.25, 1212.07 501.37 C 1215.42 500.48, 1216.91 499.23, 1219.83 496.87 C 1222.74 494.50, 1223.80 492.53, 1226.64 489.54 C 1229.48 486.55, 1230.91 484.54, 1234.04 481.93 C 1237.17 479.32, 1238.93 478.00, 1242.29 476.49 C 1245.65 474.99, 1247.60 474.61, 1250.85 474.40 C 1254.10 474.19, 1255.64 474.55, 1258.53 475.45 C 1261.41 476.35, 1262.54 477.16, 1265.25 478.91 C 1267.97 480.66, 1269.17 481.96, 1272.10 484.18 C 1275.02 486.40, 1276.45 487.68, 1279.88 490.00 C 1283.31 492.33, 1285.22 493.53, 1289.25 495.79 C 1293.27 498.05, 1295.80 499.51, 1300.01 501.31 C 1304.22 503.10, 1306.57 503.94, 1310.30 504.78 C 1314.04 505.63, 1316.62 506.50, 1318.68 505.53 C 1320.75 504.57, 1321.66 501.99, 1320.64 499.94 C 1319.62 497.90, 1316.92 496.90, 1313.59 495.30 C 1310.26 493.70, 1307.88 493.57, 1303.99 491.94 C 1300.10 490.30, 1297.78 489.18, 1294.15 487.11 C 1290.51 485.05, 1288.89 483.89, 1285.79 481.61 C 1282.69 479.33, 1281.64 478.09, 1278.66 475.72 C 1275.67 473.36, 1274.34 471.83, 1270.87 469.78 C 1267.40 467.72, 1265.47 466.52, 1261.32 465.46 C 1257.16 464.39, 1254.66 464.06, 1250.08 464.45 C 1245.50 464.85, 1242.86 465.60, 1238.41 467.45 C 1233.95 469.29, 1231.74 470.95, 1227.80 473.68 C 1223.87 476.41, 1221.99 478.38, 1218.74 481.11 C 1215.48 483.84, 1213.65 485.31, 1211.53 487.33 C 1209.40 489.35, 1209.11 490.41, 1208.13 491.20 C 1207.14 491.99, 1207.79 491.85, 1206.60 491.30 C 1205.42 490.74, 1204.39 490.21, 1202.21 488.44 C 1200.03 486.67, 1198.52 485.50, 1195.69 482.43 C 1192.86 479.35, 1191.33 477.31, 1188.05 473.07 C 1184.76 468.84, 1182.60 466.22, 1179.27 461.26 C 1175.93 456.29, 1174.09 453.56, 1171.38 448.24 C 1168.67 442.93, 1167.44 439.92, 1165.74 434.67 C 1164.04 429.42, 1163.35 425.94, 1162.88 421.99 C 1162.40 418.04, 1163.28 416.68, 1163.37 414.93 C 1163.47 413.19, 1163.09 413.36, 1163.36 413.26 C 1163.62 413.16, 1163.62 413.63, 1164.71 414.43 C 1165.81 415.23, 1167.10 415.60, 1168.83 417.25 C 1170.56 418.91, 1172.11 420.17, 1173.37 422.71 C 1174.64 425.24, 1175.24 426.86, 1175.17 429.93 C 1175.09 433.00, 1174.71 434.76, 1172.99 438.06 C 1171.26 441.35, 1170.14 443.06, 1166.54 446.40 C 1162.94 449.73, 1160.61 451.70, 1154.98 454.74 C 1149.34 457.77, 1145.59 459.19, 1138.36 461.56 C 1131.13 463.92, 1126.89 465.02, 1118.82 466.55 C 1110.75 468.08, 1105.81 468.45, 1098.00 469.21 C 1090.19 469.97, 1085.98 469.94, 1079.78 470.36 C 1073.57 470.78, 1070.75 470.39, 1066.99 471.33 C 1063.24 472.26, 1061.90 473.23, 1061.00 475.03 C 1060.11 476.83, 1060.97 479.22, 1062.50 480.33" style="stroke: black; fill: black;"/></svg>